<?xml version="1.0" encoding="UTF-8" standalone="no"?><!DOCTYPE svg PUBLIC "-//W3C//DTD SVG 1.1//EN" "http://www.w3.org/Graphics/SVG/1.1/DTD/svg11.dtd"><svg width="100%" height="100%" viewBox="0 0 210 210" version="1.1" xmlns="http://www.w3.org/2000/svg" xmlns:xlink="http://www.w3.org/1999/xlink" xml:space="preserve" style="fill-rule:evenodd;clip-rule:evenodd;stroke-linejoin:round;stroke-miterlimit:1.41421;"><g><path d="M126.157,98.273l-13.916,0c0,0 0,-56.635 0,-76.615c0,-1.824 -0.724,-3.573 -2.014,-4.863c-1.29,-1.289 -3.039,-2.014 -4.863,-2.014c-0.001,0 -0.001,0 -0.002,0c-1.866,0 -3.656,0.741 -4.975,2.061c-1.32,1.319 -2.061,3.109 -2.061,4.975c0,28.882 0,138.168 0,166.905c0,1.846 0.733,3.615 2.038,4.92c1.305,1.305 3.074,2.038 4.92,2.038c0,0 0,0 0,0c3.842,0 6.957,-3.115 6.957,-6.958c0,-14.931 0,-48.703 0,-48.703l13.916,0c0,0 0,28.211 0,48.706c0,5.535 -2.199,10.844 -6.113,14.757c-3.914,3.914 -9.222,6.113 -14.758,6.113c0,0 -0.001,0 -0.002,0c-11.528,0 -20.873,-9.345 -20.873,-20.873c0,-39.992 0,-126.991 0,-166.983c0,-11.528 9.345,-20.873 20.873,-20.873c0.001,0 0.002,0 0.002,0c5.536,0 10.844,2.199 14.758,6.113c3.914,3.913 6.113,9.222 6.113,14.757c0,28.618 0,76.537 0,76.537Z" style="fill:#fff;"/><path d="M70.495,84.358l0,13.915c0,0 -33.772,0 -48.703,0c-3.843,0 -6.958,3.115 -6.958,6.958c0,0 0,0 0,0c0,1.845 0.733,3.615 2.038,4.919c1.305,1.305 3.075,2.038 4.92,2.038c28.763,0 138.221,0 166.983,0c1.846,0 3.615,-0.733 4.92,-2.038c1.305,-1.304 2.038,-3.074 2.038,-4.919c0,0 0,0 0,0c0,-3.843 -3.115,-6.958 -6.958,-6.958c-14.931,0 -48.703,0 -48.703,0l0,-13.915c0,0 28.209,0 48.703,0c5.536,0 10.845,2.199 14.76,6.113c3.914,3.915 6.113,9.224 6.113,14.76c0,0 0,0 0,0c0,11.527 -9.345,20.872 -20.873,20.872c-39.992,0 -126.99,0 -166.983,0c-11.528,0 -20.873,-9.345 -20.873,-20.872c0,0 0,0 0,0c0,-5.536 2.199,-10.845 6.114,-14.76c3.914,-3.914 9.223,-6.113 14.759,-6.113c20.494,0 48.703,0 48.703,0ZM102.501,112.188l-22.265,0l0,13.915l22.265,0l0,-13.915Z" style="fill:#fff;"/></g></svg>